<svg width="22" height="22" viewBox="0 0 22 22" fill="none" xmlns="http://www.w3.org/2000/svg">
<rect x="1" y="1" width="20" height="20" rx="3" fill="#8F6DD8" stroke="#8F6DD8" stroke-width="0.3"/>
<path d="M3.11469 13C3.11469 12.632 3.16669 12.308 3.27069 12.028C3.37735 11.7453 3.51869 11.4973 3.69469 11.284C3.87335 11.068 4.07335 10.8773 4.29469 10.712C4.51602 10.5467 4.74135 10.3973 4.97069 10.264C5.17069 10.1467 5.35735 10.024 5.53069 9.896C5.70402 9.76533 5.84402 9.62 5.95069 9.46C6.06002 9.3 6.11469 9.11467 6.11469 8.904C6.11469 8.63467 6.01602 8.40933 5.81869 8.228C5.62135 8.044 5.35469 7.952 5.01869 7.952C4.67469 7.952 4.40935 8.028 4.22269 8.18C4.03869 8.32933 3.90669 8.528 3.82669 8.776L3.20269 8.496C3.31202 8.152 3.52935 7.868 3.85469 7.644C4.18269 7.41733 4.57869 7.304 5.04269 7.304C5.41602 7.304 5.73602 7.372 6.00269 7.508C6.27202 7.644 6.47735 7.83333 6.61869 8.076C6.76269 8.31867 6.83469 8.6 6.83469 8.92C6.83469 9.248 6.76269 9.52667 6.61869 9.756C6.47469 9.98267 6.28402 10.1827 6.04669 10.356C5.81202 10.5293 5.55735 10.696 5.28269 10.856C5.05335 10.9893 4.84402 11.128 4.65469 11.272C4.46535 11.4133 4.30669 11.5693 4.17869 11.74C4.05069 11.9107 3.96535 12.104 3.92269 12.32H6.88269V13H3.11469ZM9.939 13V11.608H7.075V11.192L9.979 7.4H10.635V10.984H11.427V11.608H10.635V13H9.939ZM7.987 10.984H9.939V8.384L7.987 10.984ZM11.2797 14.04L14.4318 7.304H15.1198L11.9758 14.04H11.2797ZM16.6656 13C16.671 12.3893 16.7283 11.8093 16.8376 11.26C16.947 10.708 17.1216 10.1693 17.3616 9.644C17.6043 9.116 17.927 8.584 18.3296 8.048H15.5456V7.4H19.1056V8.032C18.7536 8.43733 18.4656 8.86267 18.2416 9.308C18.0176 9.75067 17.843 10.1933 17.7176 10.636C17.5923 11.076 17.5043 11.4987 17.4536 11.904C17.4056 12.3067 17.3803 12.672 17.3776 13H16.6656Z" fill="#FBFBFB"/>
</svg>
