<svg width="14" height="23" viewBox="0 0 14 23" fill="none" xmlns="http://www.w3.org/2000/svg">
<path d="M6.17159 11.3612L6.1717 11.361C6.59522 10.5965 7.22163 9.97489 7.91597 9.33047C7.99131 9.26054 8.06768 9.19017 8.1447 9.1192C8.75793 8.55413 9.41185 7.95156 9.90824 7.24187C10.5606 6.31636 10.6983 5.01109 10.2215 3.92797C9.72749 2.80593 8.60175 1.97556 6.86012 1.97556C4.72545 1.97556 3.6269 3.44709 3.10179 4.72749L2.66411 4.6325C3.05371 3.63997 3.43549 3.18042 3.81665 2.7991C4.04501 2.57065 4.3977 2.29947 4.76645 2.07818C5.22882 1.80072 6.11121 1.52748 6.87596 1.50324C7.65957 1.4784 8.44666 1.59293 9.14293 1.96826C10.1989 2.61024 10.6491 3.45755 10.9375 4.62353C11.2145 5.74323 11.0345 6.60969 10.5085 7.38898C9.7948 8.44626 9.12825 9.02451 8.52972 9.51929C8.48633 9.55516 8.44289 9.59087 8.39947 9.62657C7.84775 10.0801 7.29913 10.5312 6.90024 11.2646C6.55373 11.9017 6.37179 12.3684 6.28843 12.9279C6.22573 13.3488 6.22091 13.8179 6.22154 14.4319H5.64232C5.61981 13.4975 5.61559 12.3638 6.17159 11.3612Z" fill="black" stroke="black"/>
<path d="M6.05 17C6.35376 17 6.6 17.2462 6.6 17.55C6.6 17.8538 6.35376 18.1 6.05 18.1C5.74624 18.1 5.5 17.8538 5.5 17.55C5.5 17.2462 5.74624 17 6.05 17Z" fill="black" stroke="black"/>
</svg>
